<?xml version="1.0" encoding="UTF-8"?>
<!DOCTYPE svg PUBLIC "-//W3C//DTD SVG 1.1//EN" "http://www.w3.org/Graphics/SVG/1.1/DTD/svg11.dtd">
<!-- Creator: CorelDRAW 2021.5 (Wersja próbna) -->
<svg xmlns="http://www.w3.org/2000/svg" xml:space="preserve" width="200px" height="70px" version="1.1" style="shape-rendering:geometricPrecision; text-rendering:geometricPrecision; image-rendering:optimizeQuality; fill-rule:evenodd; clip-rule:evenodd"
viewBox="0 0 200 70"
 xmlns:xlink="http://www.w3.org/1999/xlink"
 xmlns:xodm="http://www.corel.com/coreldraw/odm/2003">
 <defs>
  <style type="text/css">
   <![CDATA[
    .fil1 {fill:#2B2A29;fill-rule:nonzero}
    .fil0 {fill:#04A717;fill-rule:nonzero}
   ]]>
  </style>
 </defs>
 <g id="Warstwa_x0020_1">
  <metadata id="CorelCorpID_0Corel-Layer"/>
  <path class="fil0" d="M28.6 50.31c0.54,0 0.98,0.19 1.33,0.56 0.35,0.37 0.52,0.8 0.52,1.29 0,0.54 -0.17,0.97 -0.52,1.3 -0.35,0.33 -0.79,0.49 -1.33,0.49l-22.63 0c-0.54,0 -0.98,-0.17 -1.33,-0.52 -0.35,-0.35 -0.53,-0.79 -0.53,-1.33l0 -39.48c0,-0.53 0.18,-0.97 0.53,-1.32 0.35,-0.35 0.79,-0.53 1.33,-0.53l22.63 0c0.54,0 0.98,0.18 1.33,0.53 0.35,0.35 0.52,0.79 0.52,1.32 0,0.54 -0.17,0.97 -0.52,1.3 -0.35,0.33 -0.79,0.49 -1.33,0.49l-20.6 0 0 15.48 17.83 0c0.53,0 0.98,0.18 1.32,0.53 0.35,0.35 0.53,0.79 0.53,1.32 0,0.54 -0.18,0.97 -0.53,1.3 -0.34,0.33 -0.79,0.49 -1.32,0.49l-17.83 0 0 16.78 20.6 0z"/>
  <path id="_1" class="fil0" d="M70.67 13.98c0.62,0.37 0.93,0.88 0.93,1.54 0,0.37 -0.15,0.78 -0.43,1.24 -0.37,0.45 -0.85,0.67 -1.42,0.67 -0.33,0 -0.66,-0.1 -0.99,-0.31 -3.29,-2.17 -6.89,-3.26 -10.79,-3.26 -3.34,0 -6.35,0.78 -9.04,2.34 -2.69,1.56 -4.81,3.75 -6.35,6.57 -1.55,2.82 -2.32,6.01 -2.32,9.59 0,3.66 0.78,6.9 2.35,9.72 1.56,2.81 3.69,4.99 6.38,6.53 2.69,1.55 5.69,2.32 8.98,2.32 3.9,0 7.48,-1.07 10.73,-3.21 0.33,-0.21 0.68,-0.31 1.05,-0.31 0.57,0 1.05,0.25 1.42,0.74 0.28,0.33 0.43,0.72 0.43,1.17 0,0.66 -0.29,1.16 -0.87,1.48 -1.6,1.07 -3.57,1.97 -5.92,2.69 -2.34,0.72 -4.62,1.08 -6.84,1.08 -3.91,0 -7.52,-0.94 -10.83,-2.81 -3.31,-1.87 -5.94,-4.49 -7.9,-7.86 -1.95,-3.38 -2.93,-7.22 -2.93,-11.54 0,-4.15 0.97,-7.93 2.9,-11.32 1.94,-3.39 4.55,-6.04 7.84,-7.96 3.29,-1.91 6.93,-2.86 10.92,-2.86 2.3,0 4.55,0.32 6.75,0.98 2.2,0.66 4.18,1.59 5.95,2.78z"/>
  <path id="_2" class="fil0" d="M117.92 32.36c0,4.24 -0.88,8.04 -2.65,11.41 -1.77,3.38 -4.21,6.02 -7.34,7.93 -3.12,1.91 -6.68,2.87 -10.67,2.87 -3.99,0 -7.55,-0.96 -10.67,-2.87 -3.13,-1.91 -5.57,-4.55 -7.34,-7.93 -1.77,-3.37 -2.65,-7.17 -2.65,-11.41 0,-4.28 0.88,-8.1 2.65,-11.47 1.77,-3.37 4.21,-6.01 7.34,-7.9 3.12,-1.89 6.68,-2.83 10.67,-2.83 3.99,0 7.55,0.94 10.67,2.83 3.13,1.89 5.57,4.53 7.34,7.9 1.77,3.37 2.65,7.19 2.65,11.47zm-3.94 0c0,-3.58 -0.71,-6.77 -2.13,-9.59 -1.42,-2.82 -3.39,-5.01 -5.92,-6.57 -2.53,-1.56 -5.42,-2.34 -8.67,-2.34 -3.25,0 -6.14,0.78 -8.67,2.34 -2.53,1.56 -4.5,3.75 -5.92,6.57 -1.42,2.82 -2.13,6.01 -2.13,9.59 0,3.58 0.71,6.78 2.13,9.59 1.42,2.82 3.39,5.01 5.92,6.57 2.53,1.57 5.42,2.35 8.67,2.35 3.25,0 6.14,-0.78 8.67,-2.35 2.53,-1.56 4.5,-3.75 5.92,-6.57 1.42,-2.81 2.13,-6.01 2.13,-9.59z"/>
  <path class="fil1" d="M121.2 52.58c-0.99,0 -1.7,-0.3 -2.16,-0.89 -0.46,-0.59 -0.68,-1.26 -0.68,-2 0,-0.88 0.27,-1.62 0.83,-2.23 0.56,-0.61 1.33,-0.92 2.31,-0.92 0.95,0 1.67,0.29 2.16,0.87 0.49,0.57 0.73,1.25 0.73,2.03 0,0.87 -0.29,1.62 -0.86,2.23 -0.58,0.61 -1.35,0.91 -2.33,0.91z"/>
  <path class="fil1" d="M143.04 36.83c0.27,-0.21 0.53,-0.41 0.76,-0.61 0.24,-0.2 0.49,-0.39 0.76,-0.56 0.27,-0.17 0.55,-0.3 0.84,-0.4 0.29,-0.11 0.58,-0.19 0.89,-0.26 0.54,-0.13 1.06,0.02 1.57,0.46 0.54,0.54 0.58,1.1 0.1,1.67 -0.64,0.81 -1.16,1.73 -1.55,2.74 -0.38,1.01 -0.64,2.04 -0.76,3.07 -0.11,1.03 -0.09,2.06 0.08,3.09 0.17,1.03 0.51,1.99 1.01,2.87 0.71,-0.44 1.43,-0.98 2.16,-1.62 0.73,-0.65 1.42,-1.36 2.08,-2.13 0.66,-0.78 1.26,-1.61 1.8,-2.49 0.54,-0.88 1,-1.76 1.37,-2.64 0.1,-0.23 0.24,-0.39 0.43,-0.45 0.19,-0.07 0.36,-0.06 0.51,0.02 0.15,0.09 0.27,0.23 0.35,0.43 0.09,0.21 0.06,0.46 -0.07,0.76 -0.34,1.05 -0.81,2.1 -1.42,3.15 -0.61,1.05 -1.31,2.06 -2.08,3.04 -0.78,0.98 -1.61,1.9 -2.49,2.77 -0.88,0.86 -1.76,1.59 -2.64,2.2 -1.35,0.88 -2.67,0.76 -3.95,-0.35 -0.41,-0.37 -0.75,-0.79 -1.02,-1.25 -0.27,-0.45 -0.52,-0.93 -0.76,-1.44 -0.06,-0.1 -0.12,-0.2 -0.15,-0.31 -0.03,-0.1 -0.08,-0.23 -0.15,-0.4 -0.17,0.2 -0.31,0.39 -0.41,0.56 -0.1,0.17 -0.22,0.33 -0.35,0.5 -0.27,0.38 -0.55,0.73 -0.84,1.07 -0.29,0.34 -0.62,0.64 -0.99,0.91 -0.57,0.41 -1.17,0.64 -1.8,0.69 -0.62,0.05 -1.22,-0.02 -1.77,-0.21 -0.56,-0.18 -1.07,-0.47 -1.53,-0.86 -0.45,-0.39 -0.82,-0.82 -1.09,-1.29 -0.37,-0.75 -0.61,-1.5 -0.73,-2.26 -0.12,-0.76 -0.15,-1.53 -0.08,-2.31 0.17,-1.62 0.57,-3.11 1.19,-4.46 0.63,-1.35 1.53,-2.57 2.72,-3.65 0.57,-0.51 1.19,-0.93 1.85,-1.27 0.66,-0.34 1.38,-0.54 2.15,-0.61 0.51,-0.03 0.95,-0.03 1.32,0 0.37,0.04 0.71,0.12 1.02,0.26 0.3,0.13 0.58,0.32 0.83,0.58 0.26,0.25 0.54,0.58 0.84,0.99zm-1.16 1.47c-0.17,-0.17 -0.34,-0.25 -0.51,-0.23 -0.17,0.02 -0.34,0.04 -0.51,0.08 -0.88,0.23 -1.61,0.71 -2.21,1.42 -0.59,0.71 -1.06,1.52 -1.42,2.43 -0.35,0.91 -0.6,1.85 -0.76,2.82 -0.15,0.96 -0.21,1.81 -0.17,2.56 0.06,0.33 0.13,0.59 0.2,0.76 0.17,0.4 0.41,0.55 0.73,0.43 0.33,-0.12 0.66,-0.35 0.99,-0.69 0.34,-0.33 0.64,-0.69 0.89,-1.06 0.25,-0.37 0.41,-0.61 0.48,-0.71 0.64,-1.22 1.07,-2.49 1.27,-3.8 0.2,-1.32 0.54,-2.66 1.02,-4.01z"/>
  <path id="_1_0" class="fil1" d="M157.39 41.19c0.41,-0.51 0.77,-0.98 1.1,-1.42 0.32,-0.44 0.66,-0.86 1.04,-1.27 0.98,-1.18 2.16,-2.04 3.55,-2.59 2.13,-0.81 4,-0.35 5.63,1.37 1.45,1.63 1.89,3.57 1.31,5.84 -0.43,1.79 -1.2,3.48 -2.28,5.07 -0.07,0.07 -0.12,0.14 -0.18,0.23 -0.05,0.08 -0.09,0.19 -0.12,0.33 0.78,-0.34 1.56,-0.9 2.36,-1.68 0.79,-0.78 1.55,-1.63 2.28,-2.56 0.73,-0.93 1.4,-1.87 2.03,-2.81 0.62,-0.95 1.14,-1.78 1.54,-2.49 0.21,-0.37 0.43,-0.61 0.66,-0.71 0.24,-0.1 0.44,-0.11 0.61,-0.02 0.17,0.08 0.28,0.25 0.33,0.5 0.05,0.26 -0.01,0.55 -0.18,0.89 -1.14,2.71 -2.61,5.18 -4.38,7.43 -1.78,2.25 -4.02,3.98 -6.72,5.2 -2.2,0.95 -4.33,0.84 -6.39,-0.3 -0.85,-0.48 -1.44,-1.14 -1.78,-1.98 -0.17,-0.44 -0.25,-0.88 -0.25,-1.32 0,-0.37 0.11,-0.63 0.33,-0.76 0.22,-0.14 0.48,-0.12 0.78,0.05 0.68,0.34 1.37,0.34 2.08,0 0.17,-0.07 0.32,-0.14 0.43,-0.23 0.12,-0.08 0.25,-0.18 0.38,-0.28 0.65,-0.54 1.19,-1.15 1.63,-1.82 0.44,-0.68 0.81,-1.39 1.11,-2.14 0.24,-0.47 0.44,-0.97 0.61,-1.49 0.17,-0.52 0.34,-1.04 0.51,-1.55 0.1,-0.61 0.13,-1.16 0.1,-1.67 -0.1,-0.71 -0.51,-1 -1.22,-0.86 -0.64,0.17 -1.16,0.38 -1.57,0.66 -0.34,0.27 -0.67,0.55 -0.99,0.86 -0.32,0.3 -0.62,0.62 -0.89,0.96 -1.18,1.32 -2.14,2.79 -2.89,4.41 -0.27,0.58 -0.53,1.16 -0.78,1.75 -0.26,0.6 -0.52,1.2 -0.79,1.8 -0.13,0.31 -0.22,0.6 -0.25,0.87 -0.17,1.38 -0.35,2.74 -0.54,4.08 -0.18,1.34 -0.38,2.7 -0.58,4.08 -0.03,0.27 -0.08,0.55 -0.13,0.84 -0.05,0.29 -0.12,0.57 -0.22,0.84 -0.17,0.5 -0.48,0.93 -0.92,1.26 -0.44,0.34 -0.89,0.49 -1.37,0.46 -0.47,0 -0.89,-0.16 -1.26,-0.48 -0.38,-0.32 -0.65,-0.77 -0.82,-1.35 -0.06,-0.27 -0.13,-0.54 -0.2,-0.83 -0.07,-0.29 -0.08,-0.57 -0.05,-0.84 0.07,-1.01 0.15,-2.03 0.25,-3.04 0.11,-1.02 0.21,-2.03 0.31,-3.04 0.13,-0.99 0.26,-1.95 0.38,-2.9 0.12,-0.94 0.26,-1.91 0.43,-2.89 0.27,-1.45 0.55,-2.89 0.84,-4.31 0.28,-1.42 0.66,-2.84 1.14,-4.26 0.17,-0.44 0.38,-0.85 0.63,-1.24 0.26,-0.39 0.57,-0.72 0.94,-0.99 0.34,-0.3 0.74,-0.54 1.22,-0.71 0.47,-0.17 0.86,-0.15 1.16,0.05 0.31,0.2 0.49,0.54 0.56,1.01 0.04,0.48 0.04,0.94 0.03,1.4 -0.02,0.46 -0.04,0.92 -0.08,1.39 -0.07,0.41 -0.13,0.82 -0.2,1.22 -0.07,0.41 -0.14,0.83 -0.2,1.27 -0.04,0.1 -0.06,0.34 -0.06,0.71z"/>
  <path id="_2_1" class="fil1" d="M179.2 41.19c0.41,-0.51 0.77,-0.98 1.09,-1.42 0.33,-0.44 0.67,-0.86 1.04,-1.27 0.99,-1.18 2.17,-2.04 3.56,-2.59 2.12,-0.81 4,-0.35 5.62,1.37 1.46,1.63 1.9,3.57 1.32,5.84 -0.44,1.79 -1.2,3.48 -2.28,5.07 -0.07,0.07 -0.13,0.14 -0.18,0.23 -0.05,0.08 -0.09,0.19 -0.12,0.33 0.77,-0.34 1.56,-0.9 2.36,-1.68 0.79,-0.78 1.55,-1.63 2.28,-2.56 0.73,-0.93 1.4,-1.87 2.03,-2.81 0.62,-0.95 1.14,-1.78 1.54,-2.49 0.21,-0.37 0.43,-0.61 0.66,-0.71 0.24,-0.1 0.44,-0.11 0.61,-0.02 0.17,0.08 0.28,0.25 0.33,0.5 0.05,0.26 -0.01,0.55 -0.18,0.89 -1.15,2.71 -2.61,5.18 -4.38,7.43 -1.78,2.25 -4.02,3.98 -6.72,5.2 -2.2,0.95 -4.33,0.84 -6.39,-0.3 -0.85,-0.48 -1.44,-1.14 -1.78,-1.98 -0.17,-0.44 -0.25,-0.88 -0.25,-1.32 0,-0.37 0.11,-0.63 0.33,-0.76 0.22,-0.14 0.48,-0.12 0.78,0.05 0.68,0.34 1.37,0.34 2.08,0 0.17,-0.07 0.31,-0.14 0.43,-0.23 0.12,-0.08 0.25,-0.18 0.38,-0.28 0.65,-0.54 1.19,-1.15 1.63,-1.82 0.44,-0.68 0.81,-1.39 1.11,-2.14 0.24,-0.47 0.44,-0.97 0.61,-1.49 0.17,-0.52 0.34,-1.04 0.51,-1.55 0.1,-0.61 0.13,-1.16 0.1,-1.67 -0.1,-0.71 -0.51,-1 -1.22,-0.86 -0.64,0.17 -1.16,0.38 -1.57,0.66 -0.34,0.27 -0.67,0.55 -0.99,0.86 -0.32,0.3 -0.62,0.62 -0.89,0.96 -1.18,1.32 -2.14,2.79 -2.89,4.41 -0.27,0.58 -0.53,1.16 -0.78,1.75 -0.26,0.6 -0.52,1.2 -0.79,1.8 -0.14,0.31 -0.22,0.6 -0.25,0.87 -0.17,1.38 -0.35,2.74 -0.54,4.08 -0.18,1.34 -0.38,2.7 -0.58,4.08 -0.03,0.27 -0.08,0.55 -0.13,0.84 -0.05,0.29 -0.12,0.57 -0.22,0.84 -0.17,0.5 -0.48,0.93 -0.92,1.26 -0.44,0.34 -0.89,0.49 -1.37,0.46 -0.47,0 -0.89,-0.16 -1.27,-0.48 -0.37,-0.32 -0.64,-0.77 -0.81,-1.35 -0.06,-0.27 -0.13,-0.54 -0.2,-0.83 -0.07,-0.29 -0.08,-0.57 -0.05,-0.84 0.07,-1.01 0.15,-2.03 0.25,-3.04 0.1,-1.02 0.21,-2.03 0.31,-3.04 0.13,-0.99 0.26,-1.95 0.38,-2.9 0.12,-0.94 0.26,-1.91 0.43,-2.89 0.27,-1.45 0.55,-2.89 0.84,-4.31 0.28,-1.42 0.66,-2.84 1.14,-4.26 0.17,-0.44 0.38,-0.85 0.63,-1.24 0.25,-0.39 0.57,-0.72 0.94,-0.99 0.34,-0.3 0.74,-0.54 1.22,-0.71 0.47,-0.17 0.86,-0.15 1.16,0.05 0.31,0.2 0.49,0.54 0.56,1.01 0.04,0.48 0.04,0.94 0.03,1.4 -0.02,0.46 -0.05,0.92 -0.08,1.39 -0.07,0.41 -0.13,0.82 -0.2,1.22 -0.07,0.41 -0.14,0.83 -0.21,1.27 -0.03,0.1 -0.05,0.34 -0.05,0.71z"/>
 </g>
</svg>
